<svg width="529" height="927" viewBox="0 0 529 927" fill="none" xmlns="http://www.w3.org/2000/svg">
<g filter="url(#filter0_d)">
<path d="M484.429 903.144C721.801 903.144 914.265 712.533 914.265 477.072C914.265 241.611 721.801 51 484.429 51C247.057 51 56.197 241.611 56.197 477.072C56.197 712.533 248.661 903.144 484.429 903.144Z" fill="url(#paint0_linear)"/>
<path d="M484.435 57.4071C596.705 57.4071 704.164 100.655 782.753 180.744C862.947 259.231 906.251 364.948 906.251 477.072C906.251 589.196 862.947 694.913 782.753 773.4C702.56 851.887 596.705 896.737 484.435 896.737C372.164 896.737 264.705 853.489 186.116 773.4C105.923 694.913 62.6185 589.196 62.6185 477.072C62.6185 364.948 105.923 259.231 186.116 180.744C266.309 100.655 372.164 57.4071 484.435 57.4071ZM484.435 51C375.372 51 264.705 92.6461 181.304 175.938C12.8986 342.523 12.8986 611.621 181.304 778.206C264.705 861.498 375.372 903.144 484.435 903.144C595.101 903.144 704.164 861.498 787.565 778.206C955.971 611.621 955.971 342.523 787.565 175.938C704.164 92.6461 595.101 51 484.435 51Z" fill="url(#paint1_linear)"/>
<path d="M484.433 733.356C627.177 733.356 742.655 619.63 742.655 477.072C742.655 336.116 627.177 220.789 484.433 220.789C341.689 220.789 226.211 334.515 226.211 477.072C227.814 618.029 343.293 733.356 484.433 733.356Z" fill="url(#paint2_linear)"/>
<path d="M484.433 220.786C550.191 220.786 615.95 246.415 665.67 296.07C766.713 395.38 766.713 557.159 665.67 656.469C615.95 706.124 550.191 731.752 484.433 731.752C418.674 731.752 352.916 706.124 303.196 656.469C202.153 557.159 202.153 395.38 303.196 296.07C352.916 246.415 418.674 220.786 484.433 220.786ZM484.433 187.149C405.844 187.149 333.67 217.583 277.534 272.043C163.66 385.769 163.66 568.371 277.534 680.496C332.066 734.956 405.844 765.39 484.433 765.39C563.022 765.39 635.196 734.956 691.332 680.496C805.206 566.77 805.206 384.167 691.332 272.043C636.8 217.583 563.022 187.149 484.433 187.149Z" fill="url(#paint3_linear)"/>
</g>
<defs>
<filter id="filter0_d" x="0" y="0" width="969.265" height="962.144" filterUnits="userSpaceOnUse" color-interpolation-filters="sRGB">
<feFlood flood-opacity="0" result="BackgroundImageFix"/>
<feColorMatrix in="SourceAlpha" type="matrix" values="0 0 0 0 0 0 0 0 0 0 0 0 0 0 0 0 0 0 127 0"/>
<feOffset dy="4"/>
<feGaussianBlur stdDeviation="27.5"/>
<feColorMatrix type="matrix" values="0 0 0 0 0 0 0 0 0 0 0 0 0 0 0 0 0 0 0.25 0"/>
<feBlend mode="normal" in2="BackgroundImageFix" result="effect1_dropShadow"/>
<feBlend mode="normal" in="SourceGraphic" in2="effect1_dropShadow" result="shape"/>
</filter>
<linearGradient id="paint0_linear" x1="594.916" y1="888.957" x2="375.814" y2="64.835" gradientUnits="userSpaceOnUse">
<stop stop-color="white"/>
<stop offset="1" stop-color="#E6E7E7"/>
</linearGradient>
<linearGradient id="paint1_linear" x1="899.566" y1="588.623" x2="70.7716" y2="364.805" gradientUnits="userSpaceOnUse">
<stop stop-color="white"/>
<stop offset="1" stop-color="#E6E7E7"/>
</linearGradient>
<linearGradient id="paint2_linear" x1="666.101" y1="658.904" x2="304.597" y2="294.559" gradientUnits="userSpaceOnUse">
<stop stop-color="white"/>
<stop offset="1" stop-color="#E6E7E7"/>
</linearGradient>
<linearGradient id="paint3_linear" x1="280.271" y1="682.871" x2="689.397" y2="270.528" gradientUnits="userSpaceOnUse">
<stop stop-color="white"/>
<stop offset="1" stop-color="#E6E7E7"/>
</linearGradient>
</defs>
</svg>
